<svg id="instagram_1_" data-name="instagram (1)" xmlns="http://www.w3.org/2000/svg" width="27.001" height="27.001" viewBox="0 0 27.001 27.001">
  <g id="Groupe_2" data-name="Groupe 2">
    <g id="Groupe_1" data-name="Groupe 1">
      <path id="Tracé_1" data-name="Tracé 1" d="M18.563,0H8.438A8.439,8.439,0,0,0,0,8.438V18.563A8.439,8.439,0,0,0,8.438,27H18.563A8.439,8.439,0,0,0,27,18.563V8.438A8.439,8.439,0,0,0,18.563,0ZM24.47,18.563a5.913,5.913,0,0,1-5.906,5.906H8.438a5.913,5.913,0,0,1-5.906-5.906V8.438A5.913,5.913,0,0,1,8.438,2.531H18.563A5.913,5.913,0,0,1,24.47,8.438Z" fill="#333"/>
    </g>
  </g>
  <g id="Groupe_4" data-name="Groupe 4" transform="translate(6.75 6.75)">
    <g id="Groupe_3" data-name="Groupe 3">
      <path id="Tracé_2" data-name="Tracé 2" d="M134.75,128a6.75,6.75,0,1,0,6.75,6.75A6.751,6.751,0,0,0,134.75,128Zm0,10.969a4.219,4.219,0,1,1,4.219-4.219A4.225,4.225,0,0,1,134.75,138.969Z" transform="translate(-128 -128)" fill="#333"/>
    </g>
  </g>
  <g id="Groupe_6" data-name="Groupe 6" transform="translate(19.858 5.345)">
    <g id="Groupe_5" data-name="Groupe 5">
      <circle id="Ellipse_2" data-name="Ellipse 2" cx="0.899" cy="0.899" r="0.899" fill="#333"/>
    </g>
  </g>
</svg>
