<svg xmlns="http://www.w3.org/2000/svg" xmlns:xlink="http://www.w3.org/1999/xlink" width="124" height="124" viewBox="0 0 124 124">
  <defs>
    <filter id="Ellipse_20" x="0" y="0" width="124" height="124" filterUnits="userSpaceOnUse">
      <feOffset dy="3" input="SourceAlpha"/>
      <feGaussianBlur stdDeviation="3" result="blur"/>
      <feFlood flood-opacity="0.161"/>
      <feComposite operator="in" in2="blur"/>
      <feComposite in="SourceGraphic"/>
    </filter>
  </defs>
  <g id="Group_55253" data-name="Group 55253" transform="translate(-1609 -786)">
    <g transform="matrix(1, 0, 0, 1, 1609, 786)" filter="url(#Ellipse_20)">
      <circle id="Ellipse_20-2" data-name="Ellipse 20" cx="53" cy="53" r="53" transform="translate(9 6)" fill="#fff"/>
    </g>
    <g id="info" transform="translate(1631.861 826)">
      <path id="Path_54" data-name="Path 54" d="M47.563,34.184l-.535,2.189q-2.409.951-3.845,1.448a10.141,10.141,0,0,1-3.334.5A6.656,6.656,0,0,1,35.313,36.9a4.6,4.6,0,0,1-1.618-3.614,12.784,12.784,0,0,1,.121-1.739q.123-.89.391-2.008l2.007-7.1q.268-1.021.452-1.935a8.407,8.407,0,0,0,.183-1.665,2.575,2.575,0,0,0-.562-1.9A3.173,3.173,0,0,0,34.14,16.4a5.626,5.626,0,0,0-1.6.244c-.546.161-1.013.317-1.4.462l.537-2.19q1.972-.8,3.774-1.374a11.288,11.288,0,0,1,3.413-.572,6.493,6.493,0,0,1,4.468,1.4A4.646,4.646,0,0,1,44.9,18c0,.309-.034.853-.108,1.63a10.9,10.9,0,0,1-.4,2.143l-2,7.076a18.8,18.8,0,0,0-.439,1.949,10.033,10.033,0,0,0-.2,1.654,2.383,2.383,0,0,0,.63,1.922,3.554,3.554,0,0,0,2.187.511,6.314,6.314,0,0,0,1.653-.256A9.245,9.245,0,0,0,47.563,34.184ZM48.07,4.475a4.141,4.141,0,0,1-1.4,3.152A4.76,4.76,0,0,1,43.3,8.93a4.813,4.813,0,0,1-3.384-1.3,4.132,4.132,0,0,1-1.412-3.152,4.173,4.173,0,0,1,1.412-3.162,5,5,0,0,1,6.751,0A4.181,4.181,0,0,1,48.07,4.475Z" fill="#2e9aed"/>
    </g>
  </g>
</svg>
