<svg xmlns="http://www.w3.org/2000/svg" width="27.001" height="27.001" viewBox="0 0 27.001 27.001">
  <path id="www" d="M23.045,3.956a13.5,13.5,0,1,0,0,19.088A13.49,13.49,0,0,0,23.045,3.956ZM22.481,21.12a13.529,13.529,0,0,0-2.016-1.493,21.829,21.829,0,0,0,.814-5.267h3.968A11.67,11.67,0,0,1,22.481,21.12ZM1.754,14.36H5.723a21.829,21.829,0,0,0,.814,5.267A13.529,13.529,0,0,0,4.521,21.12,11.671,11.671,0,0,1,1.754,14.36ZM4.521,5.88A13.529,13.529,0,0,0,6.537,7.373a21.829,21.829,0,0,0-.814,5.267H1.754A11.671,11.671,0,0,1,4.521,5.88Zm8.12,1.671A11.686,11.686,0,0,1,8.631,6.535C9.36,4.657,10.7,2.4,12.64,1.846Zm0,1.723V12.64h-5.2A20.266,20.266,0,0,1,8.1,8.18,13.407,13.407,0,0,0,12.64,9.274Zm0,5.086v3.366A13.407,13.407,0,0,0,8.1,18.82a20.266,20.266,0,0,1-.652-4.46Zm0,5.089v5.7c-1.936-.558-3.28-2.81-4.009-4.688A11.686,11.686,0,0,1,12.64,19.449Zm1.72,0a11.686,11.686,0,0,1,4.009,1.016c-.729,1.878-2.074,4.13-4.009,4.688Zm0-1.723V14.36h5.2a20.266,20.266,0,0,1-.652,4.46,13.407,13.407,0,0,0-4.545-1.094Zm0-5.086V9.274A13.407,13.407,0,0,0,18.905,8.18a20.266,20.266,0,0,1,.652,4.46Zm0-5.089v-5.7c1.936.558,3.28,2.811,4.009,4.688A11.687,11.687,0,0,1,14.361,7.551Zm3.863-4.846a11.725,11.725,0,0,1,3.049,1.947A11.822,11.822,0,0,1,19.89,5.7a12.95,12.95,0,0,0-1.665-3ZM7.112,5.7a11.827,11.827,0,0,1-1.384-1.05A11.726,11.726,0,0,1,8.777,2.705a12.954,12.954,0,0,0-1.665,3Zm0,15.6a12.951,12.951,0,0,0,1.665,3,11.725,11.725,0,0,1-3.049-1.947A11.822,11.822,0,0,1,7.112,21.3Zm12.778,0a11.828,11.828,0,0,1,1.384,1.05,11.725,11.725,0,0,1-3.049,1.947,12.949,12.949,0,0,0,1.665-3Zm1.389-8.658a21.829,21.829,0,0,0-.814-5.267A13.532,13.532,0,0,0,22.481,5.88a11.671,11.671,0,0,1,2.766,6.76Z" transform="translate(0 0)" fill="#333"/>
</svg>
