<svg xmlns="http://www.w3.org/2000/svg" width="46.759" height="14.033" viewBox="0 0 46.759 14.033">
  <g id="Groupe_31" data-name="Groupe 31" transform="translate(0 -0.334)">
    <path id="Tracé_37" data-name="Tracé 37" d="M6.784,0c6.6,0,6.784,5,6.784,5H0S.183,0,6.784,0Z" transform="translate(33.191 9.363)" fill="#fff"/>
    <path id="Tracé_38" data-name="Tracé 38" d="M6.784,0c6.6,0,6.784,5,6.784,5H0S.183,0,6.784,0Z" transform="translate(0 9.363)" fill="#fff"/>
    <circle id="Ellipse_11" data-name="Ellipse 11" cx="4" cy="4" r="4" transform="translate(35.688 0.334)" fill="#fff"/>
    <circle id="Ellipse_12" data-name="Ellipse 12" cx="4" cy="4" r="4" transform="translate(2.688 0.334)" fill="#fff"/>
    <path id="Tracé_44" data-name="Tracé 44" d="M6.784,0c6.6,0,6.784,5,6.784,5H0S.183,0,6.784,0Z" transform="translate(16.653 9.363)" fill="#fff"/>
    <circle id="Ellipse_17" data-name="Ellipse 17" cx="4" cy="4" r="4" transform="translate(19.688 0.334)" fill="#fff"/>
  </g>
</svg>
