<svg xmlns="http://www.w3.org/2000/svg" width="27" height="19" viewBox="0 0 27 19">
  <g id="Groupe_44" data-name="Groupe 44" transform="translate(-1440 -359)">
    <path id="Rectangle_2" data-name="Rectangle 2" d="M5.5,0h0A5.5,5.5,0,0,1,11,5.5V19a0,0,0,0,1,0,0H0a0,0,0,0,1,0,0V5.5A5.5,5.5,0,0,1,5.5,0Z" transform="translate(1448 359)" fill="#fff"/>
    <path id="Rectangle_3" data-name="Rectangle 3" d="M3,0H3A3,3,0,0,1,6,3v7a0,0,0,0,1,0,0H0a0,0,0,0,1,0,0V3A3,3,0,0,1,3,0Z" transform="translate(1461 365)" fill="#fff"/>
    <path id="Rectangle_4" data-name="Rectangle 4" d="M3,0H3A3,3,0,0,1,6,3v7a0,0,0,0,1,0,0H0a0,0,0,0,1,0,0V3A3,3,0,0,1,3,0Z" transform="translate(1440 365)" fill="#fff"/>
  </g>
</svg>
