<svg xmlns="http://www.w3.org/2000/svg" width="45" height="45" viewBox="0 0 45 45">
  <g id="Groupe_29" data-name="Groupe 29" transform="translate(-77 -51)">
    <g id="Groupe_1" data-name="Groupe 1" transform="translate(86.952 61.774)">
      <path id="Tracé_18" data-name="Tracé 18" d="M792.54,629.017s.949,2.466,1.834,2.466h15.3v-2.466Z" transform="translate(-792.54 -618.224)" fill="#fff"/>
      <path id="Tracé_19" data-name="Tracé 19" d="M806.262,629.017s-.76,2.466-1.469,2.466H792.54v-2.466Z" transform="translate(-786.287 -618.224)" fill="#fff"/>
      <g id="Groupe_5" data-name="Groupe 5" transform="translate(4.645 3.49)">
        <path id="Tracé_13" data-name="Tracé 13" d="M0,.121A2.5,2.5,0,0,0,2.434,2.466H9.762V0Z" transform="translate(13.778 9.764) rotate(-90)" fill="#fff"/>
        <path id="Tracé_12" data-name="Tracé 12" d="M808.782,629.017s-.9,2.466-1.738,2.466h-14.5v-2.466Z" transform="translate(-792.539 -629.017)" fill="#fff"/>
        <path id="Tracé_11" data-name="Tracé 11" d="M0,0V2.466H4.073V0Z" transform="translate(2.466 2.404) rotate(90)" fill="#fff"/>
      </g>
      <g id="Groupe_13" data-name="Groupe 13" transform="translate(4.645 3.49)">
        <path id="Tracé_13-2" data-name="Tracé 13" d="M0,.121A2.5,2.5,0,0,0,2.434,2.466H9.762V0Z" transform="translate(13.778 9.764) rotate(-90)" fill="#fff"/>
        <path id="Tracé_12-2" data-name="Tracé 12" d="M808.782,629.017s-.9,2.466-1.738,2.466h-14.5v-2.466Z" transform="translate(-792.539 -629.017)" fill="#fff"/>
        <path id="Tracé_11-2" data-name="Tracé 11" d="M0,0V2.466H4.073V0Z" transform="translate(2.466 2.404) rotate(90)" fill="#fff"/>
      </g>
      <g id="Groupe_14" data-name="Groupe 14" transform="translate(4.628 14.336)">
        <path id="Tracé_13-3" data-name="Tracé 13" d="M0,2.347A2.5,2.5,0,0,1,2.436,0H9.773V2.468Z" transform="translate(16.261) rotate(90)" fill="#fff"/>
        <path id="Tracé_12-3" data-name="Tracé 12" d="M808.8,631.486s-.9-2.468-1.74-2.468H792.54v2.468Z" transform="translate(-792.539 -621.712)" fill="#fff"/>
        <path id="Tracé_11-3" data-name="Tracé 11" d="M0,2.468V0H4.077V2.468Z" transform="translate(0 7.368) rotate(-90)" fill="#fff"/>
      </g>
      <g id="Groupe_15" data-name="Groupe 15" transform="translate(4.628 14.33)">
        <path id="Tracé_13-4" data-name="Tracé 13" d="M0,2.347A2.5,2.5,0,0,1,2.436,0H9.773V2.468Z" transform="translate(16.261 0.006) rotate(90)" fill="#fff"/>
        <path id="Tracé_12-4" data-name="Tracé 12" d="M808.8,631.486s-.9-2.468-1.74-2.468H792.54v2.468Z" transform="translate(-792.539 -621.706)" fill="#fff"/>
        <path id="Tracé_29" data-name="Tracé 29" d="M808.071,631.486s-.86-2.468-1.662-2.468H792.54v2.468Z" transform="translate(-792.539 -629.017)" fill="#fff"/>
        <path id="Tracé_11-4" data-name="Tracé 11" d="M0,2.468V0H5.037V2.468Z" transform="translate(0 7.374) rotate(-90)" fill="#fff"/>
      </g>
      <g id="Groupe_28" data-name="Groupe 28" transform="translate(4.643)">
        <path id="Tracé_34" data-name="Tracé 34" d="M0,2.469S.761,0,1.47,0H13.736V2.469Z" fill="#fff"/>
        <path id="Tracé_35" data-name="Tracé 35" d="M13.736,2.469S12.975,0,12.266,0H0V2.469Z" transform="translate(2.49)" fill="#fff"/>
      </g>
    </g>
    <g id="Ellipse_9" data-name="Ellipse 9" transform="translate(77 51)" fill="none" stroke="#fff" stroke-width="2">
      <circle cx="22.5" cy="22.5" r="22.5" stroke="none"/>
      <circle cx="22.5" cy="22.5" r="21.5" fill="none"/>
    </g>
  </g>
</svg>
